PathFileType  4	(X/Y/Z) C:\Users\antoi\Documents\MyRepositories\mobilecap\ResultsAnalysis
DataRate	CameraRate	NumFrames	NumMarkers	Units	OrigDataRate	OrigDataStartFrame	OrigNumFrames
100.0	100.0	4	51	mm	100.0	1237	1413
Frame#	Time	r_knee			r_shank_antsup			r_ankle			r_calc			r_5meta			r_toe			L_knee			L_shank_antsup			L_ankle			L_calc			L_5meta			L_toe			r_sh2			r_sh3			r_sh4			L_sh2			L_sh3			r_thigh1			r_thigh2			r_thigh3			r_thigh4			r_thigh5			L_thigh1			L_thigh2			L_thigh3			L_thigh4			r.ASIS			r.PSIS			L.ASIS			L.PSIS			C7			R_Shoulder			L_Shoulder			R_Sternum			L_Sternum			R_humerus			R_elbow_med			R_elbow_lat			R_forearm			R_wrist_radius			R_wrist_ulna			L_humerus			L_elbow_med			L_elbow_lat			L_forearm			L_wrist_radius			L_wrist_ulna			R_HJC			L_HJC			R_HJC_reg			L_HJC_reg			
		X1	Y1	Z1	X2	Y2	Z2	X3	Y3	Z3	X4	Y4	Z4	X5	Y5	Z5	X6	Y6	Z6	X7	Y7	Z7	X8	Y8	Z8	X9	Y9	Z9	X10	Y10	Z10	X11	Y11	Z11	X12	Y12	Z12	X13	Y13	Z13	X14	Y14	Z14	X15	Y15	Z15	X16	Y16	Z16	X17	Y17	Z17	X18	Y18	Z18	X19	Y19	Z19	X20	Y20	Z20	X21	Y21	Z21	X22	Y22	Z22	X23	Y23	Z23	X24	Y24	Z24	X25	Y25	Z25	X26	Y26	Z26	X27	Y27	Z27	X28	Y28	Z28	X29	Y29	Z29	X30	Y30	Z30	X31	Y31	Z31	X32	Y32	Z32	X33	Y33	Z33	X34	Y34	Z34	X35	Y35	Z35	X36	Y36	Z36	X37	Y37	Z37	X38	Y38	Z38	X39	Y39	Z39	X40	Y40	Z40	X41	Y41	Z41	X42	Y42	Z42	X43	Y43	Z43	X44	Y44	Z44	X45	Y45	Z45	X46	Y46	Z46	X47	Y47	Z47	X48	Y48	Z48	X49	Y49	Z49	X50	Y50	Z50	X51	Y51	Z51	

1237	12.36000000	-224.17602	523.51689	-495.02471	-180.97146	461.43105	-494.17594	-249.89425	122.62457	-446.89091	-315.72822	97.01066	-485.68471	-159.07241	48.33608	-397.12841	-101.08009	66.23755	-446.39783	-211.66692	526.12893	-906.54885	-178.93228	440.93679	-927.36354	-239.74060	130.68138	-942.88193	-304.18794	105.88522	-893.97570	-154.19253	44.65430	-996.25234	-100.39973	58.83632	-946.14537	-204.35086	353.61574	-454.94650	-259.79859	475.30115	-476.35348	-275.65900	363.59464	-456.01100	-267.52910	449.26052	-922.95197	-267.88725	328.30534	-944.68983	-204.11741	838.04429	-512.89295	-197.94928	727.81713	-501.48061	-253.94182	702.34078	-475.44784	-317.66630	830.89165	-505.27585	-305.53632	714.44070	-494.79981	-220.85041	795.81800	-922.96760	-193.74890	660.71618	-913.65722	-329.53505	774.98973	-880.80413	-295.88464	638.91974	-888.21580	-173.02298	965.89574	-573.07532	-326.82288	1069.87771	-658.85724	-162.16017	950.18705	-823.18525	-328.22887	1075.12868	-758.66787	-127.40183	1415.97663	-712.10568	-58.04729	1359.70428	-537.59658	-53.27606	1364.96032	-880.00502	-0.24745	1347.05935	-685.05710	4.62049	1347.56101	-725.97408	-105.36602	1252.76811	-453.12867	-226.52780	1066.41414	-458.74428	-208.20057	1094.73391	-385.49103	-72.32545	1072.19743	-410.71346	48.65121	1049.46271	-446.80035	49.04039	1016.26711	-435.73055	-96.32939	1269.98890	-948.28086	-253.09704	1092.73496	-914.01245	-231.83664	1119.81904	-993.19559	-126.25439	1104.53088	-965.55706	9.35243	1069.84885	-925.05630	5.57960	1037.38621	-936.79760	-272.05914	920.02132	-598.69364	-264.59969	914.41085	-804.95308	-261.23939	912.30927	-609.00742	-263.56822	921.00637	-774.31573	
1238	12.37000000	-221.68790	523.14949	-494.39777	-179.20941	460.71473	-493.70084	-249.76644	122.34334	-446.45473	-315.76288	96.85053	-485.13311	-159.02979	48.13345	-396.90896	-101.08997	66.11964	-446.21439	-209.21672	525.25169	-906.60111	-177.20948	439.86867	-927.31585	-239.85101	130.07347	-942.66729	-304.53530	105.06391	-894.16826	-154.17625	44.37918	-996.30545	-100.52483	58.75825	-946.16172	-202.98716	353.22610	-454.47100	-257.91710	475.01962	-475.60454	-274.10749	363.37899	-455.03400	-265.72539	448.83976	-923.30610	-266.74797	327.84760	-944.89927	-200.86720	837.94061	-514.14273	-194.25272	727.87525	-502.09931	-249.85492	702.47301	-474.85260	-314.09182	830.98362	-504.22736	-301.77142	714.49411	-493.38794	-217.43577	795.05992	-922.72293	-190.57592	660.10147	-913.72572	-326.68714	774.11738	-881.64161	-292.92600	638.15642	-889.05206	-171.50922	966.11687	-572.76398	-326.28894	1068.47197	-659.47255	-160.32617	949.00444	-822.92036	-327.55365	1073.23083	-759.36084	-128.92051	1416.23599	-713.10318	-59.15650	1361.50930	-538.49278	-54.35161	1365.74562	-881.11608	-1.02805	1348.54834	-685.62115	4.22709	1348.99443	-726.78262	-105.78306	1254.62671	-452.89925	-224.91181	1066.68881	-457.58407	-206.88003	1095.92688	-384.74815	-70.72397	1075.17211	-410.05867	50.48763	1053.87582	-446.15766	51.28728	1021.21941	-434.97480	-96.48053	1269.78882	-949.07993	-251.61458	1091.37790	-914.84512	-230.52868	1118.69726	-993.89640	-124.74689	1104.41649	-966.13155	11.15699	1070.93336	-925.72822	7.64973	1038.45765	-937.43138	-270.30586	919.39554	-598.33690	-262.55842	912.61085	-804.55061	-259.39995	911.42545	-608.61964	-261.49534	919.30790	-774.07187	
1239	12.38000000	-218.96068	522.78015	-493.58713	-177.45223	460.55025	-492.96228	-249.62212	122.00310	-445.91174	-315.85321	96.70347	-484.42808	-158.97955	47.92203	-396.55000	-101.07314	65.99988	-446.01582	-206.66158	524.20141	-906.66241	-175.20743	438.77407	-927.53709	-239.93500	129.45973	-942.58069	-304.96159	104.26350	-894.49027	-154.18014	44.13316	-996.35438	-100.68529	58.68316	-946.20473	-201.42176	352.64348	-453.93933	-255.73957	474.78225	-474.67374	-272.49835	363.31345	-453.97091	-263.71007	448.44480	-923.79742	-265.49319	327.50703	-945.14322	-197.89659	837.89742	-514.99974	-190.88372	727.91856	-502.22980	-245.97055	702.63575	-473.96639	-310.95544	830.77468	-503.49044	-298.29282	714.42731	-491.85012	-214.60030	794.30706	-922.88869	-187.77317	659.44276	-914.05607	-324.03189	773.32196	-882.60516	-290.21344	637.35567	-890.15042	-170.24437	965.74504	-572.80564	-325.90797	1067.07305	-659.87253	-158.92322	947.61951	-822.77673	-326.93509	1071.44709	-759.91482	-130.15215	1416.14072	-714.06165	-60.14888	1362.73512	-539.22472	-55.19594	1366.05043	-882.20581	-1.69141	1349.41732	-686.23864	3.64495	1349.75678	-727.47278	-106.12274	1255.73043	-453.11764	-223.06637	1066.40277	-456.40407	-205.51819	1096.80573	-383.89026	-69.10615	1077.67112	-409.19795	52.30092	1057.54059	-445.45190	53.58019	1025.05154	-433.95683	-96.59242	1269.13849	-949.85291	-250.25578	1089.69495	-915.42618	-229.33845	1117.20106	-994.44063	-123.33382	1103.85340	-966.59057	12.85043	1071.41574	-926.36295	9.60388	1038.94976	-938.12793	-268.94053	918.47633	-598.16569	-261.07248	910.87438	-804.34668	-258.05959	910.36841	-608.67357	-259.75850	917.60088	-774.08896	
1240	12.39000000	-216.08563	522.34523	-492.79233	-175.40611	460.11554	-492.31344	-249.45257	121.75327	-445.35316	-315.96647	96.55082	-483.55908	-158.90551	47.72970	-396.14771	-101.07158	65.91769	-445.84586	-204.06412	523.23994	-906.99699	-172.98848	437.73199	-927.97650	-240.07806	129.04601	-943.15762	-305.42343	103.50218	-894.89398	-154.21780	43.93508	-996.44184	-100.86740	58.62362	-946.25374	-199.55634	351.91597	-453.35329	-253.23848	474.68349	-473.41100	-270.73566	363.28078	-452.86653	-261.50359	448.11503	-924.42497	-264.16434	327.24218	-945.52220	-195.37280	837.89788	-515.48070	-187.79822	728.01389	-502.00537	-242.40904	702.79947	-473.01470	-308.37331	830.28662	-502.93107	-295.14511	714.14627	-490.31238	-212.34697	793.47334	-923.06666	-185.29190	658.71567	-914.53482	-321.80666	772.40972	-883.53009	-287.79175	636.51872	-891.19364	-169.02346	964.07914	-573.26396	-325.60534	1065.74979	-660.12150	-157.91374	946.11558	-822.78683	-326.44069	1069.83057	-760.36796	-131.06118	1415.77536	-714.99260	-60.93676	1363.43626	-539.98846	-55.79115	1365.86350	-883.15706	-2.21509	1349.71795	-686.97141	2.98075	1349.95054	-728.22666	-106.32231	1256.28423	-453.50627	-221.13346	1065.81835	-455.24145	-204.17027	1097.38064	-382.90275	-67.46613	1079.68502	-408.27815	54.10546	1060.53298	-444.65527	55.86415	1027.77674	-432.80243	-96.65709	1268.08594	-950.42097	-249.25466	1087.75858	-916.02174	-228.12606	1115.39491	-994.92953	-121.99058	1102.96182	-967.06769	14.41588	1071.36536	-926.99361	11.37711	1038.86250	-938.75048	-268.01983	916.93637	-598.43380	-260.16969	909.30056	-804.61352	-257.16485	909.23532	-609.09686	-258.54082	915.95780	-774.22992	
